# This file uses centimeters as units for non-parametric coordinates.

mtllib playButton3D.mtl
g default
v 0.177971 9.170462 0.500000
v -0.073677 9.152563 0.500000
v -0.295136 9.031721 0.500000
v -0.446359 8.829782 0.500000
v -0.500000 8.583266 0.500000
v 0.414304 9.082178 0.500000
v -0.500000 8.583266 -0.500000
v -0.446359 8.829782 -0.500000
v -0.295136 9.031721 -0.500000
v -0.073677 9.152563 -0.500000
v 0.177971 9.170462 -0.500000
v 0.414304 9.082178 -0.500000
v -0.446359 3.988612 0.500000
v -0.295136 3.786673 0.500000
v -0.073677 3.665829 0.500000
v 0.177972 3.647931 0.500000
v 0.414304 3.736216 0.500000
v -0.500000 4.235128 0.500000
v 0.177972 3.647931 -0.500000
v -0.073677 3.665829 -0.500000
v -0.295136 3.786673 -0.500000
v -0.446359 3.988612 -0.500000
v -0.500000 4.235128 -0.500000
v 0.414304 3.736216 -0.500000
v 3.935233 6.059821 0.500000
v 4.030876 6.286281 0.500000
v 4.030876 6.532111 0.500000
v 3.935233 6.758573 0.500000
v 3.759018 6.929980 0.500000
v 3.759018 5.888412 0.500000
v 3.935233 6.758573 -0.500000
v 4.030876 6.532111 -0.500000
v 4.030876 6.286281 -0.500000
v 3.935233 6.059821 -0.500000
v 3.759018 5.888412 -0.500000
v 3.759018 6.929980 -0.500000
vt 0.125000 0.208328
vt 0.585078 1.000000
vt 0.375000 0.208328
vt 0.420099 0.522549
vt 0.420099 1.000000
vt 0.125000 0.041672
vt 0.585078 0.144961
vt 0.585078 0.644961
vt 0.420099 0.227451
vt 0.375000 0.041672
vt 0.420099 0.022549
vt 0.585078 0.105039
vt 0.420099 0.727451
vt 0.375000 0.708328
vt 0.375000 0.541672
vt 0.585078 0.605039
vt 0.405075 0.234962
vt 0.389104 0.242948
vt 0.375000 0.250000
vt 0.375000 0.220759
vt 0.125000 0.220759
vt -0.000000 -0.000000
vt 0.375000 0.500000
vt 0.125000 0.250000
vt 0.389104 0.507052
vt 0.405075 0.515038
vt 0.361553 0.039430
vt 0.329922 0.034158
vt 0.401364 0.896146
vt -0.000000 -0.000000
vt 0.407223 0.928625
vt -0.000000 -0.000000
vt 0.413858 0.965404
vt 0.405075 0.734962
vt 0.389104 0.742948
vt 0.125000 0.000000
vt 0.375000 0.750000
vt 0.125000 0.029241
vt -0.000000 -0.000000
vt -0.000000 -0.000000
vt 0.610488 1.000000
vt 0.625000 0.125000
vt 0.625000 1.000000
vt 0.620263 0.127369
vt 0.607473 0.133763
vt 0.607473 0.616237
vt 0.620263 0.622631
vt 0.625000 0.625000
vt 0.610488 0.632256
vn 0.530395 0.847751 -0.000000
vn 0.530395 0.847751 -0.000000
vn 0.550808 0.834632 -0.000000
vn 0.550808 0.834632 -0.000000
vn 0.530395 -0.847751 -0.000000
vn 0.530395 -0.847751 -0.000000
vn 0.550808 -0.834632 -0.000000
vn 0.550808 -0.834632 -0.000000
vn -0.999932 -0.011674 0.000000
vn -0.999932 -0.011674 0.000000
vn -0.999932 0.011674 0.000000
vn -0.999932 0.011674 0.000000
vn -0.909585 0.415518 0.000000
vn -0.909585 0.415518 0.000000
vn -0.654688 0.755899 0.000000
vn -0.654688 0.755899 0.000000
vn -0.281405 0.959589 0.000000
vn -0.281405 0.959589 0.000000
vn 0.142761 0.989757 0.000000
vn 0.142761 0.989757 0.000000
vn 0.142764 -0.989757 0.000000
vn 0.142764 -0.989757 0.000000
vn -0.281406 -0.959589 0.000000
vn -0.281406 -0.959589 0.000000
vn -0.654690 -0.755898 0.000000
vn -0.654690 -0.755898 0.000000
vn -0.909585 -0.415518 0.000000
vn -0.909585 -0.415518 0.000000
vn 0.825663 0.564163 -0.000000
vn 0.825663 0.564163 -0.000000
vn 0.980105 0.198480 -0.000000
vn 0.980105 0.198480 -0.000000
vn 0.980105 -0.198480 -0.000000
vn 0.980105 -0.198480 -0.000000
vn 0.825664 -0.564163 -0.000000
vn 0.825664 -0.564163 -0.000000
vn 0.000000 0.000000 1.000000
vn 0.000000 0.000000 1.000000
vn 0.000000 0.000000 1.000000
vn 0.000000 0.000000 1.000000
vn 0.000000 0.000000 1.000000
vn 0.000000 0.000000 1.000000
vn 0.000000 0.000000 1.000000
vn 0.000000 0.000000 1.000000
vn 0.000000 0.000000 1.000000
vn 0.000000 0.000000 1.000000
vn 0.000000 0.000000 1.000000
vn 0.000000 0.000000 1.000000
vn 0.000000 0.000000 1.000000
vn 0.000000 0.000000 1.000000
vn 0.000000 0.000000 1.000000
vn 0.000000 0.000000 1.000000
vn 0.000000 0.000000 1.000000
vn 0.000000 0.000000 1.000000
vn 0.000000 0.000000 -1.000000
vn 0.000000 0.000000 -1.000000
vn 0.000000 0.000000 -1.000000
vn 0.000000 0.000000 -1.000000
vn 0.000000 0.000000 -1.000000
vn 0.000000 0.000000 -1.000000
vn 0.000000 0.000000 -1.000000
vn 0.000000 0.000000 -1.000000
vn 0.000000 0.000000 -1.000000
vn 0.000000 0.000000 -1.000000
vn 0.000000 0.000000 -1.000000
vn 0.000000 0.000000 -1.000000
vn 0.000000 0.000000 -1.000000
vn 0.000000 0.000000 -1.000000
vn 0.000000 0.000000 -1.000000
vn 0.000000 0.000000 -1.000000
vn 0.000000 0.000000 -1.000000
vn 0.000000 0.000000 -1.000000
s 1
g pCube1
usemtl surfaceShader1SG
f 12/4/1 6/9/2 29/7/3 36/16/4
f 17/5/5 24/13/6 35/8/7 30/2/8
f 23/6/9 18/10/10 5/3/11 7/1/12
f 5/3/11 4/20/13 8/21/14 7/1/12
f 4/20/13 3/19/15 9/24/16 8/21/14
f 3/19/15 2/18/17 10/25/18 9/23/16
f 2/18/17 1/17/19 11/26/20 10/25/18
f 1/17/19 6/9/2 12/4/1 11/26/20
f 17/5/5 16/33/21 19/34/22 24/13/6
f 16/33/21 15/31/23 20/35/24 19/34/22
f 15/31/23 14/29/25 21/37/26 20/35/24
f 14/28/25 13/27/27 22/38/28 21/36/26
f 13/27/27 18/10/10 23/6/9 22/38/28
f 29/7/3 28/45/29 31/46/30 36/16/4
f 28/45/29 27/44/31 32/47/32 31/46/30
f 27/44/31 26/42/33 33/48/34 32/47/32
f 26/43/33 25/41/35 34/49/36 33/48/34
f 25/41/35 30/2/8 35/8/7 34/49/36
s off
f 25/40/37 26/42/38 27/44/39 28/45/40 29/7/41 6/9/42 1/17/43 2/18/44 3/19/45 4/20/46 5/3/47 18/10/48 13/27/49 14/28/50 15/30/51 16/32/52 17/11/53 30/12/54
f 31/46/55 32/47/56 33/48/57 34/49/58 35/8/59 24/13/60 19/34/61 20/35/62 21/37/63 22/39/64 23/14/65 7/15/66 8/22/67 9/23/68 10/25/69 11/26/70 12/4/71 36/16/72
